#!OML:ASF H:\Dans Jumps\Project 1\Capture day 1\Session 1\subject.ASF
:FULLY-SPECIFIED
:DEGREES
157
root 0.529386 17.3816 -15.2013 13.7037 -1.51941 -1.21559
lowerback 9.09294 -0.499979 -0.319059
upperback 8.17677 -0.714717 1.54145
thorax 3.43312 -0.420728 1.81911
lowerneck -15.6589 0.651257 -1.72797
upperneck 25.2453 1.06677 1.1217
head 10.6862 0.448997 0.839699
rclavicle 6.75868e-015 -1.59028e-015
rhumerus -19.4204 -10.0415 -81.5384
rradius 25.6285
rwrist 29.0342
rhand -18.8078 -26.5679
rfingers 7.12502
rthumb 7.49064 -56.4153
lclavicle 6.75868e-015 -1.59028e-015
lhumerus -16.488 -6.53006 87.8457
lradius 22.178
lwrist 8.34518
lhand -26.5724 -3.70579
lfingers 7.12502
lthumb -0.00706037 26.274
rfemur -32.0526 -4.15383 19.7411
rtibia 32.817
rfoot -12.8816 -5.87683
rtoes 11.2749
lfemur -30.7984 9.3827 -20.7171
ltibia 30.9225
lfoot -11.3543 6.2184
ltoes 4.96367
158
root 0.53351 17.3631 -15.2347 13.865 -1.52318 -1.21378
lowerback 9.42514 -0.491955 -0.315517
upperback 8.27339 -0.70296 1.53279
thorax 3.35293 -0.414715 1.81076
lowerneck -15.6687 0.656929 -1.72288
upperneck 25.0749 1.08231 1.08958
head 10.6253 0.453867 0.827973
rclavicle 9.34288e-015 -8.44835e-015
rhumerus -19.3908 -9.76864 -81.578
rradius 25.7321
rwrist 28.8133
rhand -18.8018 -26.5309
rfingers 7.12502
rthumb 7.4965 -56.3781
lclavicle 9.34288e-015 -8.44835e-015
lhumerus -16.529 -6.71678 87.8952
lradius 22.3453
lwrist 8.75802
lhand -26.5502 -3.59936
lfingers 7.12502
lthumb 0.0143716 26.3804
rfemur -32.6271 -4.20462 19.7632
rtibia 33.2978
rfoot -12.9488 -5.84205
rtoes 11.1911
lfemur -31.3944 9.45805 -20.8025
ltibia 31.4406
lfoot -11.4735 6.1644
ltoes 4.95137
159
root 0.537584 17.3434 -15.2683 14.0195 -1.5266 -1.21708
lowerback 9.76632 -0.482528 -0.306448
upperback 8.37413 -0.689013 1.52453
thorax 3.27251 -0.40739 1.79958
lowerneck -15.6884 0.66074 -1.71432
upperneck 24.894 1.09482 1.05595
head 10.5628 0.45762 0.814731
rclavicle 4.37326e-015 1.33186e-014
rhumerus -19.357 -9.51041 -81.6139
rradius 25.8335
rwrist 28.5922
rhand -18.796 -26.5012
rfingers 7.12502
rthumb 7.50207 -56.3482
lclavicle 4.37326e-015 1.33186e-014
lhumerus -16.564 -6.91695 87.9417
lradius 22.5111
lwrist 9.18291
lhand -26.5242 -3.48836
lfingers 7.12502
lthumb 0.0394413 26.4914
rfemur -33.2043 -4.25743 19.7918
rtibia 33.7947
rfoot -13.0225 -5.80435
rtoes 11.1004
lfemur -31.9961 9.53163 -20.8818
ltibia 31.9813
lfoot -11.5989 6.11774
ltoes 4.92415
160
root 0.541529 17.3226 -15.3021 14.1671 -1.5303 -1.22396
lowerback 10.1127 -0.472439 -0.296185
upperback 8.48097 -0.674153 1.51711
thorax 3.19622 -0.399643 1.7885
lowerneck -15.7103 0.661766 -1.70934
upperneck 24.6946 1.10288 1.02783
head 10.4941 0.45983 0.803366
rclavicle -1.09332e-014 7.95139e-015
rhumerus -19.3215 -9.24886 -81.6492
rradius 25.9451
rwrist 28.355
rhand -18.7861 -26.4873
rfingers 7.12502
rthumb 7.51161 -56.3339
lclavicle -1.09332e-014 7.95139e-015
lhumerus -16.5972 -7.13257 87.9899
lradius 22.6624
lwrist 9.58492
lhand -26.557 -3.45561
lfingers 7.12502
lthumb 0.00776701 26.5241
rfemur -33.7829 -4.31066 19.8248
rtibia 34.3051
rfoot -13.1 -5.76388
rtoes 11.0091
lfemur -32.6023 9.60004 -20.9556
ltibia 32.5426
lfoot -11.7304 6.08233
ltoes 4.88654
